# xmcd
#
# Track frame offsets: 
#        150
#        30136
#        47985
#        69758
#        85375
#        99168
#        129716
#        161810
#        188463
#        206935
#        229345
#
# Disc length: 3395 seconds
#
# Revision: 0
# Processed by: cddbd v1.5.2PL0 Copyright (c) Steve Scherf et al.
# Submitted via: ExactAudioCopyFreeDBPlugin 1.0
#
DISCID=8c0d410b
DTITLE=Joe Banamassa - Driving Towards the Daylight
DYEAR=2012
DGENRE=Blues Rock
TTITLE0=Dislocated Boy
TTITLE1=Stones in My Passway
TTITLE2=Driving Towards the Daylight
TTITLE3=Who's Been Talking
TTITLE4=I Got All You Nee
TTITLE5=A Place in My Heart
TTITLE6=Lonely Town Lonely Street
TTITLE7=Heavenly Soul
TTITLE8=New Coat of Paint
TTITLE9=Somewhere Trouble Don't Go
TTITLE10=Too Much Ain't Enough Love
EXTD=
EXTT0=
EXTT1=
EXTT2=
EXTT3=
EXTT4=
EXTT5=
EXTT6=
EXTT7=
EXTT8=
EXTT9=
EXTT10=
PLAYORDER=
